<svg width="41" height="41" viewBox="0 0 41 41" fill="none" xmlns="http://www.w3.org/2000/svg">
<path d="M22.1716 20.619C22.6353 20.1911 22.9357 19.5908 22.9357 18.9101C22.9357 17.6162 21.8869 16.5674 20.593 16.5674C19.2991 16.5674 18.2503 17.6162 18.2503 18.9101C18.2503 19.5908 18.5507 20.191 19.0144 20.619L10.4982 37.8077H7.70825V40.1504H11.9463L19.4216 25.0436V37.8077H17.079V40.1504H24.107V37.8077H21.7643V25.0436L29.2397 40.1504H33.4777V37.8077H30.6878L22.1716 20.619Z" fill="#FBFBFB"/>
<path d="M34.0946 0.774865L34.701 3.03742L32.4375 3.64402L35.4692 14.9583L37.7331 14.3516L38.3396 16.6143L40.6021 16.008L36.3572 0.168579L34.0946 0.774865Z" fill="#FBFBFB"/>
<path d="M5.89596 22.8403L4.68347 18.3148L6.94704 17.708L7.55348 19.9715L9.8162 19.3652L7.99711 12.5763L5.7347 13.1825L6.34091 15.4455L4.07734 16.0523L2.86469 11.5262L0.602051 12.1325L3.63332 23.4466L5.89596 22.8403Z" fill="#FBFBFB"/>
<path d="M16.0891 20.1304C15.9828 19.7389 15.9076 19.3348 15.9076 18.91C15.9076 16.3259 18.0089 14.2246 20.5929 14.2246C22.7613 14.2246 24.5724 15.7117 25.1045 17.7146L33.2066 15.5645L30.1748 4.25012L9.65356 9.70732L12.6848 21.0215L16.0891 20.1304Z" fill="#FBFBFB"/>
</svg>
